<svg width="27" height="26" viewBox="0 0 27 26" fill="none" xmlns="http://www.w3.org/2000/svg">
<path d="M10.5874 25.5C11.6104 25.5 12.4913 24.9994 13.088 24.1096L25.7896 4.6713C26.159 4.08732 26.5 3.41991 26.5 2.78031C26.5 1.41769 25.2497 0.5 23.9142 0.5C23.0617 0.5 22.2945 0.944939 21.6978 1.89043L10.4738 19.5211L5.18852 12.9305C4.50656 12.0684 3.82459 11.7625 2.97213 11.7625C1.57978 11.7625 0.5 12.8471 0.5 14.2375C0.5 14.9049 0.755737 15.5167 1.2388 16.1007L7.94481 24.1096C8.71202 25.0829 9.53607 25.5 10.5874 25.5Z" fill="#1B1D20"/>
</svg>
